<?xml version="1.0" encoding="utf-8"?>
<!-- Generator: Adobe Illustrator 24.3.0, SVG Export Plug-In . SVG Version: 6.00 Build 0)  -->
<svg version="1.1" id="Laag_1" xmlns="http://www.w3.org/2000/svg" xmlns:xlink="http://www.w3.org/1999/xlink" x="0px" y="0px"
	 viewBox="0 0 541.2 156.3" style="enable-background:new 0 0 541.2 156.3;" xml:space="preserve">
<style type="text/css">
	.st0{filter:url(#Adobe_OpacityMaskFilter);}
	.st1{fill:url(#SVGID_2_);}
	.st2{mask:url(#SVGID_1_);}
	.st3{clip-path:url(#SVGID_4_);fill:#95BB20;}
	.st4{fill:#4DA734;}
	.st5{fill:#9CBE2F;}
	.st6{fill:#2E2D2C;}
</style>
<g>
	<defs>
		<filter id="Adobe_OpacityMaskFilter" filterUnits="userSpaceOnUse" x="241.97" y="2.18" width="74.26" height="70.69">
			<feFlood  style="flood-color:white;flood-opacity:1" result="back"/>
			<feBlend  in="SourceGraphic" in2="back" mode="normal"/>
		</filter>
	</defs>
	<mask maskUnits="userSpaceOnUse" x="241.97" y="2.18" width="74.26" height="70.69" id="SVGID_1_">
		<g class="st0">
			
				<linearGradient id="SVGID_2_" gradientUnits="userSpaceOnUse" x1="-3.0021" y1="539.0856" x2="-2.0021" y2="539.0856" gradientTransform="matrix(27.6632 -34.7774 -34.7774 -27.6632 19116.6543 14879.165)">
				<stop  offset="0" style="stop-color:#FFFFFF"/>
				<stop  offset="1" style="stop-color:#000000"/>
			</linearGradient>
			<polygon class="st1" points="-49.09,100.22 218.76,-236.52 600.06,66.78 332.2,403.52 			"/>
		</g>
	</mask>
	<g class="st2">
		<g>
			<defs>
				<rect id="SVGID_3_" x="241.97" y="2.18" width="74.26" height="70.69"/>
			</defs>
			<clipPath id="SVGID_4_">
				<use xlink:href="#SVGID_3_"  style="overflow:visible;"/>
			</clipPath>
			<path class="st3" d="M307.24,27.15c-0.11,5.33-1.86,10.08-4.72,14.51c-3.56,5.5-7.92,10.31-12.63,14.8
				c-4.86,4.64-9.86,9.12-14.8,13.67c-0.42,0.39-0.86,0.76-1.31,1.1c-1.16,0.87-2.39,0.86-3.23-0.08c-0.91-1.02-0.84-2.09,0-3.11
				c2.42-2.93,4.85-5.85,7.28-8.77c0.3-0.36,0.61-0.72,0.88-1.09c0.58-0.78,0.59-1.58-0.19-2.21c-0.79-0.63-1.57-0.44-2.2,0.3
				c-1.48,1.75-2.93,3.52-4.4,5.28c-1.2,1.44-2.38,2.9-3.61,4.31c-1.04,1.19-2.4,1.36-3.44,0.51c-1.06-0.87-1.19-2.21-0.2-3.47
				c2.21-2.83,4.47-5.62,6.71-8.43c0.32-0.41,0.66-0.81,0.97-1.22c0.61-0.81,0.73-1.67-0.13-2.34c-0.86-0.67-1.66-0.36-2.3,0.44
				c-2.18,2.72-4.35,5.45-6.53,8.17c-0.26,0.33-0.5,0.67-0.78,0.97c-1.13,1.25-2.7,1.43-3.9,0.46c-1.2-0.96-1.41-2.58-0.39-3.9
				c1.72-2.22,3.53-4.38,5.29-6.56c0.69-0.85,1.37-1.7,2.06-2.55c0.7-0.85,0.84-1.74-0.1-2.45c-0.87-0.66-1.66-0.29-2.3,0.5
				c-2.16,2.67-4.34,5.33-6.49,8.01c-0.8,1-1.76,1.64-3.08,1.49c-2.47-0.28-3.57-2.95-2.02-5.09c2.62-3.62,5.32-7.19,7.99-10.77
				c0.87-1.16,1.68-2.37,2.65-3.44c1.37-1.51,3.11-1.61,4.74-0.37c2.15,1.63,4.24,3.34,6.41,4.94c2.46,1.81,6.13,1.79,8.65,0.04
				c1.52-1.06,1.85-3.16,0.78-5.17c-2.89-5.42-5.76-10.85-8.71-16.22c-0.55-1-0.45-1.62,0.26-2.44c5.05-5.83,11.51-8.3,19.07-7.71
				c6.78,0.53,11.74,5.67,13.17,13.25C306.97,24.04,307.06,25.6,307.24,27.15"/>
		</g>
	</g>
	<path class="st4" d="M252.72,9.57c8.5,0.42,15.07,4.47,19.29,12.28c2.72,5.03,5.42,10.06,8.17,15.07c0.59,1.08,0.13,1.5-0.8,1.84
		c-2.19,0.8-3.96-0.16-5.6-1.41c-1.57-1.19-3.01-2.55-4.56-3.77c-3.41-2.69-7.2-2.23-9.81,1.24c-3.22,4.26-6.37,8.57-9.56,12.86
		c-1.51,2.03-2.73,2.07-4.35,0.16c-3.76-4.42-7.14-9.08-8.5-14.85c-1.23-5.22-0.93-10.36,1.47-15.22
		C241.29,12.06,246.05,9.45,252.72,9.57"/>
</g>
<g>
	<path class="st5" d="M60.06,104.83v-1.8c3.27-0.71,6.76-3.92,7.14-7.46h1.85v6.87h4.74v2.4h-4.74v9.59c0,2.62,0.76,3.98,2.45,3.98
		c1.04,0,2.18-0.49,3.71-1.58l0.76,1.53c-1.8,1.63-4.8,3.16-6.7,3.16c-3.92,0-6.32-2.45-6.32-6.7v-9.97H60.06z"/>
	<path class="st5" d="M89.87,118.62c2.45,0,4.79-0.82,6.48-2.29l0.93,1.58c-1.91,2.02-5.23,3.6-8.28,3.6
		c-6.54,0-11.01-4.52-11.01-10.03c0-5.78,4.79-9.97,10.52-9.97c5.99,0,9.05,5.23,7.9,8.99H84.53
		C84.15,116.06,86.98,118.62,89.87,118.62z M92.16,108.1c0.16-2.23-0.98-3.98-3.38-3.98c-1.96,0-3.27,1.36-3.87,3.98H92.16z"/>
	<path class="st5" d="M117.27,121.18c-2.45,0-3.81-1.2-4.2-3.16c-3.05,2.4-4.41,3.27-6.87,3.27c-2.62,0-5.23-1.69-5.23-4.58
		c0-4.63,4.96-6.65,12.1-7.74v-0.05c0-4.03-1.25-5.18-3.54-5.18c-1.25,0-2.94,0.71-2.94,2.12c0,1.47-0.98,2.34-2.18,2.34
		s-2.13-0.87-2.13-2.34c0-2.72,3.92-4.36,7.9-4.36c6.05,0,8.61,2.23,8.61,7.41v7.36c0,1.36,0.44,2.07,1.2,2.07
		c0.6,0,1.14-0.38,1.58-0.65l0.76,1.47C120.76,120.36,118.53,121.18,117.27,121.18z M113.08,111.15c-4.2,1.09-6.7,2.18-6.7,4.9
		c0,1.63,1.09,2.18,2.18,2.18c0.87,0,2.67-0.82,4.52-2.45V111.15z"/>
	<path class="st5" d="M150.13,112.63c0,5.45,0.65,6.38,4.3,6.38v1.58h-12.59V119c1.36,0,2.12-0.93,2.12-6.38v-2.29
		c0-3.54-0.6-5.78-3.05-5.78c-2.18,0-5.01,1.74-5.01,5.39v2.67c0,5.45,0.71,6.38,3.65,6.38v1.58h-14.11V119
		c3.65,0,4.3-0.93,4.3-6.38v-1.8c0-5.45-0.65-6.38-4.3-6.38v-1.58l9.54-1.36c0.27,0.54,0.65,1.96,0.76,3.11
		c1.47-1.8,3.81-3.11,6.81-3.11c3.27,0,5.56,1.58,6.7,4.03c1.96-2.67,4.3-4.03,7.52-4.03c4.9,0,7.57,3.49,7.57,8.12v3
		c0,5.45,0.65,6.38,4.3,6.38v1.58h-12.59V119c1.36,0,2.12-0.93,2.12-6.38v-2.29c0-3.54-0.6-5.78-3.05-5.78
		c-2.18,0-5.01,1.74-5.01,5.39V112.63z"/>
</g>
<g>
	<path class="st6" d="M188.86,121.51c-0.21-0.54-0.4-2.5-0.44-3.49c-1.54,1.42-4.41,3.49-7.57,3.49c-5.01,0-6.32-3.54-5.75-8.17
		l0.42-3.43c0.67-5.45,0.13-6.37-3.52-6.37l0.13-1.09h8.17l-1.3,10.62c-0.43,3.54,0.48,5.83,3.42,5.83c2.12,0,6.13-2.02,6.55-5.39
		l0.44-3.6c0.67-5.45,0.07-6.37-3.58-6.37l0.13-1.09h8.17l-1.25,10.19c-0.67,5.45-0.07,6.37,3.58,6.37l-0.14,1.14L188.86,121.51z"/>
	<path class="st6" d="M199.38,120.58l0.14-1.14c3.6,0,4.42-0.93,5.09-6.37l0.33-2.72c0.67-5.45,0.07-6.32-3.53-6.32l0.14-1.14
		l8.34-1.36l-1.42,11.55c-0.67,5.45-0.13,6.37,3.52,6.37l-0.14,1.14H199.38z M208.59,96.18c-1.31,0-2.26-1.09-2.1-2.45
		c0.16-1.31,1.38-2.4,2.69-2.4s2.26,1.09,2.1,2.4C211.12,95.09,209.89,96.18,208.59,96.18z"/>
	<path class="st6" d="M216.41,104.35l0.16-1.31c3.36-0.71,4.84-3.05,5.66-6.59h1.85l-0.74,5.99h4.74l-0.23,1.91h-4.74l-1.35,11.01
		c-0.32,2.61,0.22,3.98,1.96,3.98c0.98,0,2.38-0.71,3.78-1.91l0.81,0.93c-1.75,1.85-4.31,3.16-6.11,3.16c-3,0-4.83-1.91-4.31-6.15
		l1.35-11.01H216.41z"/>
	<path class="st6" d="M234.46,121.51h-1.14l3.15-25.66c0.67-5.45,0.07-6.37-3.52-6.37l0.14-1.14l8.34-1.36l-2.18,17.76
		c1.88-2.02,4.32-3.21,7.04-3.21c5.18,0,8.88,4.47,8.2,9.97c-0.68,5.5-5.48,10.02-10.66,10.02c-2.89,0-5.22-1.42-6.53-3.65
		L234.46,121.51z M237.99,114.97c0.66,2.62,2.46,4.36,4.97,4.36c4.25,0,6.64-3.49,7.18-7.85c0.54-4.36-1-7.79-5.26-7.79
		c-2.51,0-4.74,1.74-6.03,4.3L237.99,114.97z"/>
	<path class="st6" d="M270.26,119.22c1.8,0,4.54-1.04,6.3-2.51l0.83,1.2c-2.15,2.02-5.67,3.59-8.78,3.59
		c-5.99,0-9.53-4.52-8.85-10.02c0.71-5.77,6.24-9.97,11.3-9.97c4.85,0,8.24,3.92,6.35,8.61H264.3
		C263.01,115.24,264.65,119.22,270.26,119.22z M273.92,108.11c0.81-1.74,0.21-4.41-3.38-4.41c-2.34,0-4.57,1.74-5.66,4.41H273.92z"
		/>
	<path class="st6" d="M294.4,120.58l0.14-1.14c3.43,0,3.96-0.76,4.65-6.37l0.39-3.16c0.43-3.54-0.59-5.83-3.42-5.83
		c-2.72,0-6.17,2.34-6.55,5.45l-0.43,3.54c-0.7,5.67-0.35,6.37,2.65,6.37l-0.14,1.14h-11.61l0.14-1.14c3.65,0,4.42-0.93,5.09-6.37
		l2.11-17.21c0.67-5.45,0.13-6.37-3.52-6.37l0.14-1.14l8.34-1.36l-2.27,18.47c1.75-1.85,4.46-3.92,7.62-3.92
		c5.01,0,6.27,3.49,5.71,8.12l-0.42,3.43c-0.67,5.45-0.07,6.37,3.58,6.37l-0.14,1.14H294.4z"/>
	<path class="st6" d="M324.89,121.18c-2.12,0-3.29-1.2-3.32-3.16c-2.96,2.4-5.03,3.27-7.21,3.27c-2.67,0-4.7-1.69-4.34-4.58
		c0.57-4.63,6.21-6.65,12.56-7.74c0.5-4.09,0.16-5.72-2.95-5.72c-1.25,0-3.21,0.87-3.43,2.62c-0.13,1.09-1.05,1.91-2.09,1.91
		c-1.09,0-1.81-0.82-1.67-1.91c0.32-2.62,3.97-4.36,7.46-4.36c5.29,0,7.19,2.23,6.56,7.41l-1.01,8.23
		c-0.17,1.36,0.17,2.12,0.99,2.12c0.54,0,1.2-0.44,1.63-0.82l0.64,1.04C327.52,120.58,326.09,121.18,324.89,121.18z M322.37,110.67
		c-5.32,1.2-7.89,3-8.18,5.39c-0.21,1.74,0.86,2.78,2.22,2.78c1.14,0,2.5-0.38,5.28-2.61L322.37,110.67z"/>
	<path class="st6" d="M349.59,101.51c4.9,0,6.66,3.49,6.09,8.12l-0.42,3.43c-0.67,5.45-0.13,6.37,3.52,6.37l-0.14,1.14h-12.48
		l0.14-1.14c3.54,0,4.42-0.93,5.09-6.37l0.39-3.16c0.44-3.54-0.54-5.83-3.81-5.83c-3,0-6.57,2.45-6.93,5.45l-0.43,3.54
		c-0.69,5.61-0.35,6.37,3.03,6.37l-0.14,1.14H331.5l0.14-1.14c3.6,0,4.42-0.93,5.09-6.37l0.33-2.72c0.67-5.45,0.07-6.32-3.53-6.32
		l0.14-1.14l7.41-1.36c0.21,0.54,0.42,2.78,0.45,3.92C343.23,103.58,345.99,101.51,349.59,101.51z"/>
	<path class="st6" d="M381.45,95.85c0.67-5.45,0.13-6.37-3.52-6.37l0.14-1.14l8.34-1.36l-3.15,25.66c-0.67,5.45-0.07,6.37,3.52,6.37
		l-0.14,1.14l-7.41,1.36c-0.21-0.54-0.41-2.45-0.46-3.32c-1.76,1.91-4.11,3.32-7.11,3.32c-5.18,0-8.93-4.52-8.25-10.02
		c0.68-5.5,5.53-9.97,10.71-9.97c2.72,0,4.87,1.2,6.25,3.21L381.45,95.85z M379.95,108c-0.67-2.56-2.52-4.3-4.97-4.3
		c-4.25,0-6.63,3.43-7.17,7.79c-0.54,4.36,1,7.85,5.25,7.85c2.45,0,4.74-1.74,6.03-4.3L379.95,108z"/>
	<path class="st6" d="M401.84,119.22c1.8,0,4.54-1.04,6.3-2.51l0.83,1.2c-2.16,2.02-5.67,3.59-8.78,3.59
		c-5.99,0-9.53-4.52-8.85-10.02c0.71-5.77,6.24-9.97,11.3-9.97c4.85,0,8.24,3.92,6.35,8.61h-13.13
		C394.59,115.24,396.23,119.22,401.84,119.22z M405.49,108.11c0.81-1.74,0.21-4.41-3.38-4.41c-2.34,0-4.57,1.74-5.66,4.41H405.49z"
		/>
	<path class="st6" d="M411.64,120.58l0.14-1.14c3.65,0,4.42-0.93,5.09-6.37l2.11-17.21c0.67-5.45,0.13-6.37-3.52-6.37l0.14-1.14
		l8.34-1.36l-3.2,26.09c-0.67,5.45-0.07,6.37,3.52,6.37l-0.14,1.14H411.64z"/>
	<path class="st6" d="M446.99,95.85c0.67-5.45,0.13-6.37-3.52-6.37l0.14-1.14l8.34-1.36l-3.15,25.66c-0.67,5.45-0.07,6.37,3.52,6.37
		l-0.14,1.14l-7.41,1.36c-0.21-0.54-0.41-2.45-0.46-3.32c-1.76,1.91-4.11,3.32-7.11,3.32c-5.18,0-8.93-4.52-8.25-10.02
		c0.68-5.5,5.53-9.97,10.71-9.97c2.72,0,4.87,1.2,6.25,3.21L446.99,95.85z M445.5,108c-0.67-2.56-2.52-4.3-4.97-4.3
		c-4.25,0-6.63,3.43-7.17,7.79c-0.54,4.36,1,7.85,5.25,7.85c2.45,0,4.74-1.74,6.03-4.3L445.5,108z"/>
</g>
<g>
	<path class="st6" d="M458.42,109.65c-1.07,0-1.79-0.83-1.67-1.79c0.12-1,1.05-1.82,2.11-1.82c1.07,0,1.86,0.83,1.74,1.82
		C460.48,108.82,459.48,109.65,458.42,109.65z"/>
	<path class="st6" d="M476.63,97.34c3.09,0,4.2,2.2,3.84,5.12l-0.27,2.17c-0.42,3.44-0.08,4.02,2.22,4.02l-0.09,0.72h-7.87
		l0.09-0.72c2.24,0,2.79-0.58,3.21-4.02l0.24-1.99c0.27-2.23-0.34-3.68-2.4-3.68c-1.89,0-4.14,1.55-4.38,3.44l-0.27,2.23
		c-0.44,3.54-0.22,4.02,1.91,4.02l-0.09,0.72h-7.56l0.09-0.72c2.27,0,2.79-0.58,3.21-4.02l0.21-1.72c0.42-3.44,0.04-3.99-2.23-3.99
		l0.09-0.72l4.68-0.86c0.13,0.34,0.27,1.75,0.28,2.48C472.63,98.64,474.37,97.34,476.63,97.34z"/>
	<path class="st6" d="M483.65,109.37l0.09-0.72c2.3,0,2.79-0.58,3.21-4.02l1.33-10.86c0.42-3.44,0.08-4.02-2.22-4.02l0.09-0.72
		l5.26-0.86l-2.02,16.47c-0.42,3.44-0.05,4.02,2.22,4.02l-0.09,0.72H483.65z"/>
</g>
</svg>
