<?xml version="1.0" encoding="utf-8"?>
<!-- Generator: Adobe Illustrator 24.3.0, SVG Export Plug-In . SVG Version: 6.00 Build 0)  -->
<svg version="1.1" id="Laag_1" xmlns="http://www.w3.org/2000/svg" xmlns:xlink="http://www.w3.org/1999/xlink" x="0px" y="0px"
	 viewBox="0 0 595.28 97.78" style="enable-background:new 0 0 595.28 97.78;" xml:space="preserve">
<style type="text/css">
	.st0{fill:#9CBE2F;}
	.st1{fill:#2E2D2C;}
	.st2{filter:url(#Adobe_OpacityMaskFilter);}
	.st3{fill:url(#SVGID_2_);}
	.st4{mask:url(#SVGID_1_);}
	.st5{clip-path:url(#SVGID_4_);fill:#95BB20;}
	.st6{fill:#4DA734;}
</style>
<g>
	<g>
		<path class="st0" d="M131.88,46.41v-1.77c3.22-0.7,6.65-3.86,7.03-7.35h1.82v6.76h4.67v2.36h-4.67v9.44
			c0,2.57,0.75,3.92,2.41,3.92c1.02,0,2.15-0.48,3.65-1.56l0.75,1.5c-1.77,1.61-4.72,3.11-6.6,3.11c-3.86,0-6.22-2.41-6.22-6.6
			v-9.81H131.88z"/>
		<path class="st0" d="M161.22,59.98c2.41,0,4.72-0.8,6.38-2.25l0.91,1.56c-1.88,1.98-5.15,3.54-8.15,3.54
			c-6.44,0-10.83-4.45-10.83-9.87c0-5.69,4.72-9.82,10.35-9.82c5.9,0,8.9,5.15,7.78,8.85h-11.69
			C155.59,57.46,158.38,59.98,161.22,59.98z M163.47,49.63c0.16-2.2-0.97-3.92-3.33-3.92c-1.93,0-3.22,1.34-3.81,3.92H163.47z"/>
		<path class="st0" d="M188.2,62.5c-2.41,0-3.75-1.18-4.13-3.11c-3,2.36-4.34,3.22-6.76,3.22c-2.57,0-5.15-1.66-5.15-4.5
			c0-4.56,4.88-6.54,11.91-7.62v-0.05c0-3.97-1.23-5.1-3.49-5.1c-1.23,0-2.9,0.7-2.9,2.09c0,1.45-0.97,2.31-2.15,2.31
			c-1.18,0-2.09-0.86-2.09-2.31c0-2.68,3.86-4.29,7.78-4.29c5.95,0,8.47,2.2,8.47,7.29v7.24c0,1.34,0.43,2.04,1.18,2.04
			c0.59,0,1.13-0.38,1.56-0.64l0.75,1.45C191.63,61.7,189.43,62.5,188.2,62.5z M184.07,52.63c-4.13,1.07-6.6,2.14-6.6,4.83
			c0,1.61,1.07,2.15,2.15,2.15c0.86,0,2.63-0.8,4.45-2.41V52.63z"/>
		<path class="st0" d="M220.54,54.08c0,5.36,0.64,6.28,4.24,6.28v1.56h-12.39v-1.56c1.34,0,2.09-0.91,2.09-6.28v-2.25
			c0-3.49-0.59-5.69-3-5.69c-2.15,0-4.93,1.72-4.93,5.31v2.63c0,5.36,0.7,6.28,3.59,6.28v1.56h-13.89v-1.56
			c3.59,0,4.24-0.91,4.24-6.28v-1.77c0-5.36-0.64-6.28-4.24-6.28v-1.56l9.39-1.34c0.27,0.54,0.64,1.93,0.75,3.06
			c1.45-1.77,3.75-3.06,6.7-3.06c3.22,0,5.47,1.56,6.6,3.97c1.93-2.63,4.24-3.97,7.4-3.97c4.83,0,7.46,3.43,7.46,7.99v2.95
			c0,5.36,0.64,6.28,4.24,6.28v1.56h-12.39v-1.56c1.34,0,2.09-0.91,2.09-6.28v-2.25c0-3.49-0.59-5.69-3-5.69
			c-2.15,0-4.93,1.72-4.93,5.31V54.08z"/>
	</g>
	<g>
		<path class="st1" d="M258.68,62.83c-0.2-0.54-0.39-2.47-0.44-3.43c-1.51,1.39-4.34,3.43-7.45,3.43c-4.93,0-6.22-3.49-5.66-8.05
			l0.42-3.38c0.66-5.36,0.13-6.28-3.47-6.28l0.13-1.07h8.04l-1.28,10.46c-0.43,3.49,0.47,5.74,3.37,5.74c2.09,0,6.04-1.98,6.44-5.31
			l0.43-3.54c0.66-5.36,0.07-6.28-3.52-6.28l0.13-1.07h8.04l-1.23,10.03c-0.66,5.36-0.07,6.28,3.52,6.28l-0.14,1.13L258.68,62.83z"
			/>
		<path class="st1" d="M269.04,61.91l0.14-1.13c3.54,0,4.35-0.91,5.01-6.28l0.33-2.68c0.66-5.36,0.07-6.22-3.47-6.22l0.14-1.13
			l8.21-1.34l-1.4,11.37c-0.66,5.36-0.13,6.28,3.47,6.28l-0.14,1.13H269.04z M278.1,37.88c-1.29,0-2.23-1.07-2.06-2.41
			c0.16-1.29,1.36-2.36,2.65-2.36s2.23,1.07,2.07,2.36C280.6,36.81,279.39,37.88,278.1,37.88z"/>
		<path class="st1" d="M285.81,45.93l0.16-1.29c3.3-0.7,4.77-3,5.57-6.49h1.82l-0.72,5.9h4.67l-0.23,1.88h-4.67l-1.33,10.83
			c-0.32,2.58,0.22,3.92,1.93,3.92c0.96,0,2.34-0.7,3.72-1.88l0.8,0.91c-1.73,1.82-4.24,3.11-6.01,3.11c-2.95,0-4.76-1.88-4.24-6.06
			l1.33-10.83H285.81z"/>
		<path class="st1" d="M303.58,62.83h-1.13l3.1-25.27c0.66-5.36,0.07-6.28-3.47-6.28l0.14-1.13l8.21-1.34l-2.15,17.49
			c1.85-1.99,4.25-3.17,6.93-3.17c5.09,0,8.74,4.4,8.07,9.82c-0.67,5.42-5.4,9.87-10.49,9.87c-2.84,0-5.14-1.4-6.42-3.59
			L303.58,62.83z M307.05,56.39c0.65,2.57,2.42,4.29,4.89,4.29c4.18,0,6.54-3.43,7.06-7.72c0.53-4.29-0.99-7.67-5.17-7.67
			c-2.47,0-4.66,1.72-5.94,4.24L307.05,56.39z"/>
		<path class="st1" d="M338.83,60.57c1.77,0,4.47-1.02,6.2-2.47l0.82,1.18c-2.12,1.99-5.58,3.54-8.64,3.54
			c-5.9,0-9.38-4.45-8.71-9.87c0.7-5.69,6.14-9.82,11.13-9.82c4.77,0,8.11,3.86,6.25,8.48h-12.93
			C331.69,56.66,333.3,60.57,338.83,60.57z M342.42,49.63c0.8-1.72,0.21-4.35-3.33-4.35c-2.31,0-4.5,1.72-5.57,4.35H342.42z"/>
		<path class="st1" d="M362.59,61.91l0.14-1.13c3.38,0,3.9-0.75,4.58-6.28l0.38-3.11c0.43-3.49-0.58-5.74-3.37-5.74
			c-2.68,0-6.08,2.31-6.45,5.36l-0.43,3.49c-0.69,5.58-0.34,6.28,2.61,6.28l-0.14,1.13h-11.42l0.14-1.13c3.59,0,4.35-0.91,5.01-6.28
			l2.08-16.95c0.66-5.36,0.13-6.28-3.47-6.28l0.14-1.13l8.21-1.34L358.36,47c1.73-1.82,4.39-3.86,7.5-3.86
			c4.93,0,6.17,3.43,5.62,7.99l-0.42,3.38c-0.66,5.36-0.07,6.28,3.52,6.28l-0.14,1.13H362.59z"/>
		<path class="st1" d="M392.61,62.5c-2.09,0-3.23-1.18-3.27-3.11c-2.92,2.36-4.95,3.22-7.1,3.22c-2.63,0-4.62-1.66-4.27-4.5
			c0.56-4.56,6.11-6.54,12.36-7.62c0.49-4.02,0.16-5.63-2.9-5.63c-1.23,0-3.16,0.86-3.37,2.57c-0.13,1.07-1.04,1.88-2.05,1.88
			c-1.07,0-1.78-0.8-1.65-1.88c0.32-2.57,3.91-4.29,7.34-4.29c5.2,0,7.08,2.2,6.45,7.29l-0.99,8.1c-0.17,1.34,0.17,2.09,0.98,2.09
			c0.54,0,1.18-0.43,1.6-0.8l0.63,1.02C395.2,61.91,393.79,62.5,392.61,62.5z M390.12,52.15c-5.24,1.18-7.76,2.95-8.05,5.31
			c-0.21,1.72,0.84,2.74,2.19,2.74c1.13,0,2.46-0.38,5.2-2.58L390.12,52.15z"/>
		<path class="st1" d="M416.92,43.14c4.83,0,6.55,3.43,5.99,7.99l-0.42,3.38c-0.66,5.36-0.13,6.28,3.47,6.28l-0.14,1.13h-12.28
			l0.14-1.13c3.49,0,4.35-0.91,5.01-6.28l0.38-3.11c0.43-3.49-0.53-5.74-3.75-5.74c-2.95,0-6.46,2.41-6.83,5.36l-0.43,3.49
			c-0.68,5.52-0.34,6.28,2.98,6.28l-0.14,1.13h-11.8l0.14-1.13c3.54,0,4.35-0.91,5.01-6.28l0.33-2.68c0.66-5.36,0.07-6.22-3.47-6.22
			l0.14-1.13l7.3-1.34c0.2,0.54,0.42,2.74,0.44,3.86C410.67,45.18,413.38,43.14,416.92,43.14z"/>
		<path class="st1" d="M448.29,37.56c0.66-5.36,0.13-6.28-3.47-6.28l0.14-1.13l8.21-1.34l-3.1,25.27c-0.66,5.36-0.07,6.28,3.47,6.28
			l-0.14,1.13l-7.3,1.34c-0.2-0.54-0.4-2.42-0.46-3.27c-1.73,1.88-4.05,3.27-7,3.27c-5.1,0-8.79-4.45-8.12-9.87
			s5.44-9.82,10.54-9.82c2.68,0,4.79,1.18,6.15,3.17L448.29,37.56z M446.82,49.52c-0.66-2.52-2.48-4.24-4.9-4.24
			c-4.18,0-6.53,3.38-7.06,7.67c-0.53,4.29,0.98,7.72,5.17,7.72c2.41,0,4.66-1.72,5.94-4.24L446.82,49.52z"/>
		<path class="st1" d="M468.37,60.57c1.77,0,4.47-1.02,6.2-2.47l0.82,1.18c-2.12,1.99-5.58,3.54-8.64,3.54
			c-5.9,0-9.38-4.45-8.71-9.87c0.7-5.69,6.14-9.82,11.13-9.82c4.77,0,8.11,3.86,6.25,8.48H462.5
			C461.23,56.66,462.84,60.57,468.37,60.57z M471.97,49.63c0.8-1.72,0.21-4.35-3.33-4.35c-2.31,0-4.5,1.72-5.58,4.35H471.97z"/>
		<path class="st1" d="M478.02,61.91l0.14-1.13c3.59,0,4.35-0.91,5.01-6.28l2.08-16.95c0.66-5.36,0.13-6.28-3.47-6.28l0.14-1.13
			l8.21-1.34l-3.15,25.7c-0.66,5.36-0.07,6.28,3.47,6.28l-0.14,1.13H478.02z"/>
		<path class="st1" d="M512.82,37.56c0.66-5.36,0.13-6.28-3.47-6.28l0.14-1.13l8.21-1.34l-3.1,25.27c-0.66,5.36-0.07,6.28,3.47,6.28
			l-0.14,1.13l-7.3,1.34c-0.2-0.54-0.4-2.42-0.46-3.27c-1.73,1.88-4.05,3.27-7,3.27c-5.1,0-8.79-4.45-8.12-9.87
			c0.67-5.42,5.44-9.82,10.54-9.82c2.68,0,4.79,1.18,6.15,3.17L512.82,37.56z M511.35,49.52c-0.66-2.52-2.48-4.24-4.9-4.24
			c-4.18,0-6.53,3.38-7.06,7.67c-0.53,4.29,0.98,7.72,5.17,7.72c2.41,0,4.66-1.72,5.94-4.24L511.35,49.52z"/>
	</g>
</g>
<g>
	<path class="st1" d="M524.07,51.14c-1.05,0-1.76-0.81-1.65-1.76c0.12-0.98,1.03-1.79,2.08-1.79s1.83,0.81,1.71,1.79
		C526.1,50.33,525.12,51.14,524.07,51.14z"/>
	<path class="st1" d="M542.01,39.03c3.05,0,4.13,2.17,3.78,5.04l-0.26,2.13c-0.42,3.38-0.08,3.96,2.19,3.96l-0.09,0.71h-7.75
		l0.09-0.71c2.2,0,2.74-0.58,3.16-3.96l0.24-1.96c0.27-2.2-0.33-3.62-2.36-3.62c-1.86,0-4.08,1.52-4.31,3.38l-0.27,2.2
		c-0.43,3.49-0.21,3.96,1.88,3.96l-0.09,0.71h-7.45l0.09-0.71c2.23,0,2.74-0.58,3.16-3.96l0.21-1.69c0.42-3.39,0.04-3.93-2.19-3.93
		l0.09-0.71l4.6-0.85c0.13,0.34,0.26,1.73,0.28,2.44C538.06,40.31,539.78,39.03,542.01,39.03z"/>
	<path class="st1" d="M548.92,50.87l0.09-0.71c2.27,0,2.74-0.58,3.16-3.96l1.31-10.7c0.42-3.38,0.08-3.96-2.19-3.96l0.09-0.71
		l5.18-0.85l-1.99,16.21c-0.42,3.38-0.05,3.96,2.19,3.96l-0.09,0.71H548.92z"/>
</g>
<g>
	<defs>
		<filter id="Adobe_OpacityMaskFilter" filterUnits="userSpaceOnUse" x="48" y="12.53" width="77.34" height="74.12">
			<feFlood  style="flood-color:white;flood-opacity:1" result="back"/>
			<feBlend  in="SourceGraphic" in2="back" mode="normal"/>
		</filter>
	</defs>
	<mask maskUnits="userSpaceOnUse" x="48" y="12.53" width="77.34" height="74.12" id="SVGID_1_">
		<g class="st2">
			
				<linearGradient id="SVGID_2_" gradientUnits="userSpaceOnUse" x1="7.8463" y1="476.8238" x2="8.8463" y2="476.8238" gradientTransform="matrix(29.1768 -36.6802 -36.6802 -29.1768 17479.0234 14383.4141)">
				<stop  offset="0" style="stop-color:#FFFFFF"/>
				<stop  offset="1" style="stop-color:#000000"/>
			</linearGradient>
			<polygon class="st3" points="3,67.95 254.92,-248.77 630.74,50.17 378.81,366.88 			"/>
		</g>
	</mask>
	<g class="st4">
		<g>
			<defs>
				<rect id="SVGID_3_" x="48" y="12.53" width="77.34" height="74.12"/>
			</defs>
			<clipPath id="SVGID_4_">
				<use xlink:href="#SVGID_3_"  style="overflow:visible;"/>
			</clipPath>
			<path class="st5" d="M116.34,38.49c-0.12,5.63-1.96,10.63-4.98,15.3c-3.75,5.8-8.35,10.87-13.32,15.61
				c-5.12,4.89-10.4,9.62-15.61,14.41c-0.44,0.41-0.9,0.8-1.39,1.17c-1.23,0.92-2.52,0.9-3.4-0.09c-0.96-1.07-0.88-2.21,0-3.28
				c2.55-3.09,5.12-6.17,7.68-9.25c0.32-0.38,0.64-0.76,0.93-1.15c0.61-0.83,0.62-1.66-0.2-2.33c-0.83-0.67-1.66-0.46-2.32,0.32
				c-1.56,1.84-3.1,3.71-4.64,5.57c-1.27,1.52-2.51,3.06-3.81,4.54c-1.09,1.25-2.53,1.44-3.63,0.54c-1.12-0.91-1.26-2.33-0.22-3.66
				c2.33-2.99,4.72-5.93,7.08-8.89c0.34-0.43,0.69-0.85,1.03-1.29c0.65-0.86,0.77-1.76-0.14-2.47c-0.91-0.71-1.75-0.37-2.43,0.47
				c-2.3,2.87-4.59,5.75-6.89,8.62c-0.27,0.34-0.53,0.7-0.82,1.03c-1.19,1.31-2.85,1.5-4.11,0.49c-1.26-1.01-1.49-2.72-0.41-4.11
				c1.82-2.34,3.72-4.62,5.58-6.92c0.73-0.9,1.44-1.8,2.18-2.69c0.74-0.9,0.89-1.84-0.1-2.58c-0.91-0.69-1.75-0.3-2.43,0.53
				c-2.28,2.82-4.58,5.62-6.84,8.45c-0.84,1.06-1.85,1.73-3.25,1.57c-2.61-0.3-3.76-3.11-2.13-5.37c2.76-3.82,5.61-7.58,8.42-11.36
				c0.91-1.23,1.77-2.51,2.79-3.63c1.44-1.6,3.28-1.69,4.99-0.39c2.26,1.72,4.47,3.52,6.76,5.21c2.59,1.91,6.46,1.89,9.12,0.05
				c1.61-1.11,1.95-3.33,0.82-5.46c-3.05-5.71-6.07-11.44-9.19-17.11c-0.58-1.05-0.48-1.71,0.27-2.58
				c5.33-6.15,12.14-8.75,20.12-8.13c7.15,0.56,12.39,5.98,13.89,13.97C116.06,35.21,116.15,36.86,116.34,38.49"/>
		</g>
	</g>
	<path class="st6" d="M58.84,19.95c8.96,0.44,15.89,4.72,20.34,12.95c2.86,5.3,5.72,10.62,8.62,15.9c0.62,1.13,0.14,1.58-0.85,1.94
		c-2.31,0.84-4.17-0.17-5.9-1.48c-1.65-1.26-3.18-2.69-4.81-3.97c-3.6-2.84-7.59-2.35-10.35,1.31c-3.39,4.5-6.72,9.04-10.09,13.56
		c-1.59,2.14-2.87,2.18-4.59,0.17c-3.96-4.66-7.53-9.57-8.96-15.67c-1.3-5.5-0.99-10.92,1.55-16.05
		C46.79,22.57,51.8,19.82,58.84,19.95"/>
</g>
</svg>
